<svg width="43" height="43" viewBox="0 0 43 43" fill="none" xmlns="http://www.w3.org/2000/svg">
<path d="M41.0238 21.4999H42.0238V20.4999H41.0238V21.4999ZM21.5 40.0237C11.2696 40.0237 2.9762 31.7303 2.9762 21.4999H0.976196C0.976196 32.8349 10.165 42.0237 21.5 42.0237V40.0237ZM40.0238 21.4999C40.0238 31.7303 31.7304 40.0237 21.5 40.0237V42.0237C32.835 42.0237 42.0238 32.8349 42.0238 21.4999H40.0238ZM21.5 0.976074C10.165 0.976074 0.976196 10.1649 0.976196 21.4999H2.9762C2.9762 11.2695 11.2696 2.97607 21.5 2.97607V0.976074ZM21.5 2.97607C26.6834 2.97607 31.3681 5.10376 34.7313 8.53595L36.1598 7.13615C32.4359 3.33589 27.2426 0.976074 21.5 0.976074V2.97607ZM22.4762 22.4999H41.0238V20.4999H22.4762V22.4999Z" fill="#293241"/>
</svg>
