<svg width="60" height="60" viewBox="0 0 60 60" fill="none" xmlns="http://www.w3.org/2000/svg">
<rect width="60" height="60" rx="5" fill="#FFA97A"/>
<path d="M48.9874 13L49.9852 12.9338C49.9586 12.5327 49.6943 12.1865 49.3144 12.055C48.9345 11.9235 48.5128 12.0323 48.2439 12.3312L48.9874 13ZM47.2025 21.2527C47.2025 20.7004 46.7548 20.2527 46.2025 20.2527C45.6503 20.2527 45.2025 20.7004 45.2025 21.2527H47.2025ZM29.5238 23.7381V24.7381H30.5238V23.7381H29.5238ZM12.7848 13L13.7213 12.6494C13.5818 12.2767 13.2346 12.0222 12.8372 12.0014C12.4398 11.9805 12.0679 12.1973 11.8901 12.5533L12.7848 13ZM23.6667 38.381L24.3743 39.0875C24.619 38.8424 24.7195 38.4881 24.6399 38.151C24.5602 37.814 24.3119 37.5421 23.9833 37.4324L23.6667 38.381ZM10 43.6803V42.6803C9.55946 42.6803 9.17082 42.9686 9.04301 43.3902C8.9152 43.8117 9.07833 44.2673 9.44471 44.5119L10 43.6803ZM44.072 15.7149L43.3302 16.3856L43.6906 16.784L44.2217 16.7036L44.072 15.7149ZM47.9895 13.0662C48.1347 15.2554 48.0051 16.6357 47.6268 17.702C47.2559 18.7475 46.6108 19.5912 45.5107 20.6453L46.8944 22.0894C48.0955 20.9384 48.9912 19.8379 49.5117 18.3707C50.0248 16.9243 50.137 15.2236 49.9852 12.9338L47.9895 13.0662ZM47.2025 23.2848V21.3673H45.2025V23.2848H47.2025ZM47.2025 21.3673V21.2527H45.2025V21.3673H47.2025ZM28.5238 21.7857V23.7381H30.5238V21.7857H28.5238ZM37.9626 12C32.6821 12 28.5238 16.6013 28.5238 21.7857H30.5238C30.5238 17.6012 33.8885 14 37.9626 14V12ZM45.2025 23.2848C45.2025 35.5567 34.9034 46.1667 22.6905 46.1667V48.1667C36.047 48.1667 47.2025 36.6219 47.2025 23.2848H45.2025ZM11.8483 13.3506C13.3442 17.3459 18.9716 24.7381 29.5238 24.7381V22.7381C20.0254 22.7381 15.0102 16.0917 13.7213 12.6494L11.8483 13.3506ZM11.8901 12.5533C9.0111 18.3203 8.52525 23.929 10.5151 28.6908C12.5049 33.4527 16.8888 37.1724 23.35 39.3295L23.9833 37.4324C17.9128 35.4058 14.071 32.0133 12.3604 27.9197C10.6498 23.8261 10.9889 18.8362 13.6795 13.4467L11.8901 12.5533ZM22.959 37.6744C21.2449 39.3912 16.3603 42.6803 10 42.6803V44.6803C17.0068 44.6803 22.3754 41.0895 24.3743 39.0875L22.959 37.6744ZM44.8137 15.0442C43.1246 13.1761 40.6802 12 37.9626 12V14C40.0909 14 42.004 14.9187 43.3302 16.3856L44.8137 15.0442ZM44.2217 16.7036C46.2491 16.3966 48.2369 15.3294 49.7308 13.6688L48.2439 12.3312C47.0476 13.661 45.474 14.4911 43.9222 14.7261L44.2217 16.7036ZM9.44471 44.5119C13.8384 47.4456 18.0665 48.1667 22.6905 48.1667V46.1667C18.3145 46.1667 14.516 45.4932 10.5553 42.8486L9.44471 44.5119Z" fill="#293241"/>
</svg>
